<svg height="512pt" viewBox="-144 0 512 512" width="512pt" xmlns="http://www.w3.org/2000/svg"><path d="m184 336v16c-6.640625 0-12 5.359375-12 12s5.359375 12 12 12v16h-48v-56zm0 0" fill="#edab37"/><path d="m200 464v24h-64v-72h64zm0 0" fill="#edab37"/><path d="m136 488v16h-48v-272h48zm0 0" fill="#f6bb42"/><path d="m72 88c13.28125 0 24 10.71875 24 24s-10.71875 24-24 24-24-10.71875-24-24 10.71875-24 24-24zm0 0" fill="#edab37"/><path d="m152 88c13.28125 0 24 10.71875 24 24s-10.71875 24-24 24-24-10.71875-24-24 10.71875-24 24-24zm0 0" fill="#edab37"/><path d="m136 232h-80v-32.320312c-28.878906-18.480469-48-50.878907-48-87.679688 0-57.441406 46.558594-104 104-104s104 46.558594 104 104c0 36.800781-19.121094 69.199219-48 87.679688v32.320312zm40-120c0-13.28125-10.71875-24-24-24s-24 10.71875-24 24 10.71875 24 24 24 24-10.71875 24-24zm-80 0c0-13.28125-10.71875-24-24-24s-24 10.71875-24 24 10.71875 24 24 24 24-10.71875 24-24zm0 0" fill="#ffce54"/><path d="m112 8c-4.070312 0-8.0625.296875-12.015625.753906 51.777344 5.957032 91.992187 49.878906 91.992187 103.246094 0 36.800781-19.121093 69.199219-48 87.679688v32.320312h24.023438v-32.320312c28.878906-18.480469 48-50.878907 48-87.679688 0-57.441406-46.558594-104-104-104zm0 0" fill="#f6bb42"/><path d="m88.007812 512c-4.421874 0-8-3.574219-8-8v-280.015625c0-4.425781 3.578126-8 8-8 4.425782 0 8 3.574219 8 8v280.015625c0 4.425781-3.574218 8-8 8zm0 0"/><path d="m136 512h-47.992188c-4.421874 0-8-3.574219-8-8s3.578126-8 8-8h47.992188c4.425781 0 8 3.574219 8 8s-3.574219 8-8 8zm0 0"/><path d="m136 512c-4.425781 0-8-3.574219-8-8v-280.015625c0-4.425781 3.574219-8 8-8s8 3.574219 8 8v280.015625c0 4.425781-3.574219 8-8 8zm0 0"/><path d="m56.007812 207.664062c-1.480468 0-2.96875-.40625-4.304687-1.265624-32.375-20.71875-51.703125-56.007813-51.703125-94.398438 0-61.761719 50.238281-112 112-112s112 50.238281 112 112c0 38.382812-19.320312 73.671875-51.6875 94.382812-3.726562 2.402344-8.671875 1.296876-11.046875-2.421874-2.386719-3.722657-1.296875-8.671876 2.421875-11.050782 27.753906-17.757812 44.3125-48.007812 44.3125-80.910156 0-52.9375-43.0625-96-96-96s-96 43.0625-96 96c0 32.902344 16.566406 63.160156 44.328125 80.929688 3.71875 2.375 4.808594 7.328124 2.425781 11.046874-1.53125 2.382813-4.105468 3.6875-6.746094 3.6875zm0 0"/><path d="m56.015625 239.992188c-4.421875 0-8-3.578126-8-8v-32.328126c0-4.425781 3.578125-8 8-8 4.425781 0 8 3.574219 8 8v32.328126c0 4.421874-3.574219 8-8 8zm0 0"/><path d="m168 239.992188h-111.984375c-4.421875 0-8-3.578126-8-8 0-4.425782 3.578125-8 8-8h111.984375c4.425781 0 8 3.574218 8 8 0 4.421874-3.574219 8-8 8zm0 0"/><path d="m168 239.992188c-4.425781 0-8-3.578126-8-8v-32.34375c0-4.425782 3.574219-8 8-8s8 3.574218 8 8v32.34375c0 4.421874-3.574219 8-8 8zm0 0"/><path d="m72 144.007812c-17.648438 0-32-14.351562-32-32 0-17.648437 14.351562-32 32-32s32 14.351563 32 32c0 17.648438-14.351562 32-32 32zm0-48c-8.824219 0-16 7.175782-16 16 0 8.824219 7.175781 16 16 16s16-7.175781 16-16c0-8.824218-7.175781-16-16-16zm0 0"/><path d="m152 144.007812c-17.648438 0-32-14.351562-32-32 0-17.648437 14.351562-32 32-32s32 14.351563 32 32c0 17.648438-14.351562 32-32 32zm0-48c-8.824219 0-16 7.175782-16 16 0 8.824219 7.175781 16 16 16s16-7.175781 16-16c0-8.824218-7.175781-16-16-16zm0 0"/><path d="m104 176c-2.046875 0-4.097656-.785156-5.65625-2.34375-3.128906-3.128906-3.128906-8.191406 0-11.3125l8.007812-8c3.128907-3.128906 8.183594-3.128906 11.3125 0 3.128907 3.128906 3.128907 8.191406 0 11.3125l-8.007812 8c-1.558594 1.558594-3.609375 2.34375-5.65625 2.34375zm0 0"/><path d="m120 176c-2.046875 0-4.097656-.785156-5.65625-2.34375l-7.992188-8c-3.128906-3.128906-3.128906-8.191406 0-11.3125 3.128907-3.128906 8.183594-3.128906 11.3125 0l7.992188 8c3.128906 3.128906 3.128906 8.191406 0 11.3125-1.558594 1.558594-3.609375 2.34375-5.65625 2.34375zm0 0"/><path d="m200.007812 495.984375h-64.007812c-4.425781 0-8-3.578125-8-8 0-4.425781 3.574219-8 8-8h64.007812c4.425782 0 8 3.574219 8 8 0 4.421875-3.574218 8-8 8zm0 0"/><path d="m200.007812 495.984375c-4.421874 0-8-3.578125-8-8v-71.984375c0-4.425781 3.578126-8 8-8 4.425782 0 8 3.574219 8 8v71.984375c0 4.421875-3.574218 8-8 8zm0 0"/><path d="m200.007812 424h-64.007812c-4.425781 0-8-3.574219-8-8s3.574219-8 8-8h64.007812c4.425782 0 8 3.574219 8 8s-3.574218 8-8 8zm0 0"/><path d="m184.007812 399.992188h-48.007812c-4.425781 0-8-3.578126-8-8 0-4.425782 3.574219-8 8-8h48.007812c4.425782 0 8 3.574218 8 8 0 4.421874-3.574218 8-8 8zm0 0"/><path d="m184.007812 359.984375c-4.421874 0-8-3.578125-8-8v-16c0-4.425781 3.578126-8 8-8 4.425782 0 8 3.574219 8 8v16c0 4.421875-3.574218 8-8 8zm0 0"/><path d="m184.007812 343.984375h-48.007812c-4.425781 0-8-3.578125-8-8 0-4.425781 3.574219-8 8-8h48.007812c4.425782 0 8 3.574219 8 8 0 4.421875-3.574218 8-8 8zm0 0"/><path d="m184.007812 383.984375c-11.03125 0-20-8.96875-20-20s8.96875-20 20-20c4.425782 0 8 3.574219 8 8 0 4.421875-3.574218 8-8 8-2.199218 0-4 1.800781-4 4s1.800782 4 4 4c4.425782 0 8 3.574219 8 8 0 4.421875-3.574218 8-8 8zm0 0"/><path d="m184.007812 399.992188c-4.421874 0-8-3.578126-8-8v-16.007813c0-4.425781 3.578126-8 8-8 4.425782 0 8 3.574219 8 8v16.007813c0 4.421874-3.574218 8-8 8zm0 0"/><path d="m200.007812 447.992188h-7.984374c-4.421876 0-8-3.578126-8-8 0-4.425782 3.578124-8 8-8h7.984374c4.425782 0 8 3.574218 8 8 0 4.421874-3.574218 8-8 8zm0 0"/><path d="m200.007812 471.992188h-24c-4.421874 0-8-3.578126-8-8 0-4.425782 3.578126-8 8-8h24c4.425782 0 8 3.574218 8 8 0 4.421874-3.574218 8-8 8zm0 0"/></svg>